<svg width="40" height="40" viewBox="0 0 40 40" fill="none" xmlns="http://www.w3.org/2000/svg">
<path d="M15.8629 16.78H15.8626C15.2421 16.78 14.647 16.9957 14.2083 17.3797C13.7695 17.7636 13.523 18.2844 13.523 18.8273C13.5231 19.3703 13.7696 19.891 14.2084 20.2749C14.6471 20.6588 15.2422 20.8745 15.8628 20.8745C16.4833 20.8745 17.0784 20.6588 17.5172 20.2749C17.956 19.891 18.2025 19.3703 18.2025 18.8273C18.2025 18.2844 17.956 17.7636 17.5173 17.3797C17.0785 16.9957 16.4834 16.78 15.8629 16.78ZM24.2057 16.78C23.6948 16.7421 23.1827 16.8401 22.7364 17.0611C22.2902 17.2821 21.9306 17.6159 21.7047 18.0187C21.4789 18.4215 21.3973 18.8746 21.4706 19.3187C21.544 19.7628 21.7689 20.1771 22.1158 20.5075C22.4628 20.8379 22.9157 21.0689 23.4152 21.1703C23.9147 21.2718 24.4375 21.2389 24.9153 21.0759C25.3931 20.913 25.8035 20.6277 26.0929 20.2572C26.3822 19.8868 26.537 19.4486 26.537 18.9999C26.5506 18.7202 26.5012 18.4408 26.3914 18.1778C26.2816 17.9148 26.1136 17.6734 25.8971 17.4672C25.6806 17.261 25.4198 17.0942 25.1296 16.9763C24.8394 16.8584 24.5254 16.7917 24.2057 16.78ZM35.3141 0H4.68588C4.06902 0.00127518 3.45848 0.108859 2.88914 0.316607C2.3198 0.524355 1.80281 0.828198 1.36768 1.21079C0.932547 1.59337 0.587806 2.04721 0.353141 2.54639C0.118476 3.04556 -0.00151654 3.58029 1.44679e-05 4.12005V31.16C-0.00149024 31.6998 0.118522 32.2345 0.353197 32.7337C0.587873 33.2328 0.932616 33.6866 1.36774 34.0692C1.80287 34.4518 2.31986 34.7556 2.88918 34.9634C3.45851 35.1711 4.06903 35.2787 4.68588 35.28H30.6057L29.3943 31.5799L32.3199 33.9599L35.0857 36.1999L40 40V4.12005C40.0015 3.58029 39.8815 3.04556 39.6469 2.54639C39.4122 2.04721 39.0675 1.59337 38.6323 1.21079C38.1972 0.828198 37.6802 0.524355 37.1109 0.316607C36.5415 0.108859 35.931 0.00127518 35.3141 0ZM26.4914 26.12V26.1201C26.4914 26.1201 25.6684 25.26 24.9826 24.5C26.6395 24.1586 28.105 23.3156 29.12 22.12C28.2976 22.599 27.4158 22.9948 26.4914 23.2999C25.4281 23.6971 24.316 23.9857 23.1771 24.16C21.2195 24.4753 19.2119 24.4685 17.2572 24.14C16.1096 23.9435 14.9848 23.6556 13.897 23.2801C13.3237 23.0871 12.7662 22.8599 12.2285 22.6C12.1598 22.5599 12.0915 22.54 12.0229 22.5C11.9885 22.4851 11.9575 22.4647 11.9314 22.4401C11.5202 22.2401 11.2912 22.1 11.2912 22.1C12.2695 23.2705 13.6844 24.1053 15.2913 24.46C14.6058 25.2201 13.7601 26.12 13.7601 26.12C12.4023 26.152 11.0564 25.8915 9.84074 25.3614C8.6251 24.8312 7.57702 24.0478 6.78874 23.08C6.86296 19.0254 7.98834 15.0385 10.08 11.4199C11.9208 10.1549 14.165 9.42117 16.5028 9.31995L16.7312 9.56005C14.5318 10.0362 12.4794 10.9308 10.72 12.18C10.72 12.18 11.2229 11.94 12.0685 11.6C13.7116 10.9437 15.4628 10.5185 17.2574 10.3401C17.3854 10.3168 17.5154 10.3034 17.6461 10.3C19.1777 10.1254 20.7278 10.112 22.2631 10.2601C24.6775 10.5013 27.0148 11.1535 29.1431 12.18C27.4729 10.9904 25.5331 10.1246 23.452 9.63998L23.7718 9.32014C26.1096 9.42128 28.3538 10.1551 30.1946 11.4201C32.2864 15.0386 33.4119 19.0255 33.4861 23.0801C32.6914 24.047 31.6388 24.8294 30.4197 25.3592C29.2006 25.889 27.8521 26.1501 26.4914 26.12Z" fill="white"/>
</svg>
