<svg width="55" height="40" viewBox="0 0 55 40" fill="none" xmlns="http://www.w3.org/2000/svg">
<path d="M47.1875 40H7.8125C5.74124 39.9975 3.75552 39.1566 2.29092 37.6618C0.826314 36.167 0.00243248 34.1403 0 32.0263V7.97373C0.00243248 5.85973 0.826314 3.83302 2.29092 2.33819C3.75552 0.843368 5.74124 0.00248268 7.8125 0H47.1875C49.2588 0.00248268 51.2445 0.843368 52.7091 2.33819C54.1737 3.83302 54.9976 5.85973 55 7.97373V32.0263C54.9976 34.1403 54.1737 36.167 52.7091 37.6618C51.2445 39.1566 49.2588 39.9975 47.1875 40ZM7.8125 2.81426C6.47179 2.81426 5.186 3.35784 4.23797 4.32543C3.28995 5.29302 2.75735 6.60536 2.75735 7.97373V32.0263C2.75735 33.3946 3.28995 34.707 4.23797 35.6746C5.186 36.6422 6.47179 37.1857 7.8125 37.1857H47.1875C48.5282 37.1857 49.814 36.6422 50.762 35.6746C51.7101 34.707 52.2426 33.3946 52.2426 32.0263V7.97373C52.2426 6.60536 51.7101 5.29302 50.762 4.32543C49.814 3.35784 48.5282 2.81426 47.1875 2.81426H7.8125Z" fill="white"/>
<path d="M27.5001 25.7035C25.7993 25.7062 24.144 25.1431 22.785 24.0994L1.32361 7.53278C1.17198 7.42416 1.04334 7.28547 0.945398 7.12498C0.847451 6.96449 0.782199 6.78551 0.753538 6.59871C0.724878 6.41191 0.733396 6.22113 0.778585 6.03776C0.823774 5.8544 0.904706 5.68221 1.01655 5.53148C1.12839 5.38075 1.26885 5.25457 1.42953 5.16048C1.59022 5.06639 1.76784 5.00632 1.95178 4.98385C2.13572 4.96138 2.32221 4.97698 2.50011 5.02971C2.67801 5.08244 2.84368 5.17122 2.98721 5.29075L24.4486 21.8761C25.3299 22.5476 26.4003 22.9104 27.5001 22.9104C28.5999 22.9104 29.6702 22.5476 30.5516 21.8761L52.013 5.29075C52.1565 5.17122 52.3222 5.08244 52.5001 5.02971C52.678 4.97698 52.8644 4.96138 53.0484 4.98385C53.2323 5.00632 53.4099 5.06639 53.5706 5.16048C53.7313 5.25457 53.8718 5.38075 53.9836 5.53148C54.0955 5.68221 54.1764 5.8544 54.2216 6.03776C54.2668 6.22113 54.2753 6.41191 54.2466 6.59871C54.218 6.78551 54.1527 6.96449 54.0548 7.12498C53.9568 7.28547 53.8282 7.42416 53.6766 7.53278L32.2152 24.0994C30.8561 25.1431 29.2008 25.7062 27.5001 25.7035Z" fill="white"/>
<path d="M1.92093 36.0788C1.6413 36.0792 1.36817 35.9928 1.13776 35.8311C0.907352 35.6694 0.730564 35.44 0.630855 35.1734C0.531145 34.9068 0.513228 34.6155 0.57948 34.3382C0.645733 34.061 0.793024 33.8108 1.00181 33.621L17.9136 18.227C18.1866 17.9782 18.5453 17.8503 18.9107 17.8714C19.2761 17.8925 19.6183 18.0609 19.8621 18.3396C20.1059 18.6182 20.2312 18.9843 20.2105 19.3572C20.1898 19.7302 20.0248 20.0795 19.7518 20.3283L2.84004 35.7223C2.58889 35.9555 2.26045 36.0829 1.92093 36.0788ZM53.079 36.0788C52.7395 36.0829 52.4111 35.9555 52.1599 35.7223L35.2481 20.3283C35.1129 20.2051 35.0029 20.056 34.9242 19.8893C34.8455 19.7227 34.7997 19.5419 34.7894 19.3572C34.7792 19.1726 34.8047 18.9877 34.8645 18.813C34.9242 18.6384 35.0171 18.4775 35.1378 18.3396C35.2585 18.2016 35.4047 18.0892 35.5679 18.0089C35.7312 17.9286 35.9083 17.8818 36.0893 17.8714C36.2702 17.8609 36.4514 17.887 36.6225 17.948C36.7935 18.009 36.9512 18.1038 37.0864 18.227L53.9889 33.621C54.1977 33.8108 54.345 34.061 54.4113 34.3382C54.4775 34.6155 54.4596 34.9068 54.3599 35.1734C54.2602 35.44 54.0834 35.6694 53.853 35.8311C53.6226 35.9928 53.3494 36.0792 53.0698 36.0788H53.079Z" fill="white"/>
</svg>
