<svg width="677" height="612" viewBox="0 0 677 612" fill="none" xmlns="http://www.w3.org/2000/svg">
<path opacity="0.11" d="M463.028 599.6H186.549C128.607 599.6 73.9555 572.697 38.645 526.793C-0.0986068 476.426 -10.505 409.81 11.0349 350.04L61.4206 210.227C82.2231 152.503 130.12 108.704 189.502 93.1042L332.26 55.6011C400.16 37.7635 472.331 59.5297 519.017 111.925L629.776 236.228C681.145 293.88 691.64 377.205 656.167 445.777L628.743 498.79C596.713 560.71 532.784 599.6 463.028 599.6Z" fill="#2A94F4"/>
<path opacity="0.2" d="M108.743 578.587C108.743 597.033 208.921 612 332.509 612C456.08 612 556.259 597.033 556.259 578.587C556.259 560.13 456.08 545.165 332.509 545.165C208.921 545.165 108.743 560.13 108.743 578.587Z" fill="#2A94F4"/>
<path d="M254.849 129.077L257.526 116.794C257.526 116.794 270.34 113.54 271.28 100.033C272.218 86.5246 246.238 81.1696 242.718 88.7225C241.283 91.8017 240.05 98.4387 239.093 105.221C237.702 115.077 236.894 125.239 236.894 125.239L254.849 129.077Z" fill="#FCD2B1"/>
<path d="M226.386 116.283C226.386 116.283 237 111.39 246.326 115.657C249.985 117.33 258.485 124.91 258.485 124.91C258.485 124.91 253.001 220.595 250.844 228.46C251.418 228.656 251.964 228.861 252.549 229.083C275.124 238.087 308.506 258.255 323.223 266.685C330.328 270.759 327.518 277.977 331.913 284.521C334.903 288.985 337.119 293.893 338.4 299.177C340.405 307.509 339.974 316.146 332.693 321.396C329.969 323.371 326.76 324.398 323.551 324.518C319.988 324.675 316.372 323.694 313.368 321.736C293.038 308.371 236.452 272.841 225.619 262.76C223.723 260.988 222.192 259.113 221.016 257.2C220.555 256.588 220.143 255.927 219.701 255.182C208.826 235.731 226.386 116.283 226.386 116.283Z" fill="black"/>
<path d="M354.506 578.559C354.506 578.559 398.072 580.438 430.963 551C457.28 527.445 476.758 488.063 482.313 470.834C487.869 453.605 490.254 419.215 481.935 413.471C473.615 407.727 322.972 551 322.972 551L354.506 578.559Z" fill="#0B4870"/>
<path d="M159.623 485.437C159.623 485.437 177.773 464.915 226.778 464.981C264.935 465.032 390.125 499.305 390.125 499.305L335.676 557.473L159.623 485.437Z" fill="#0E538C"/>
<path d="M387.381 568.355L361.971 557.474L353.293 573.796L364.795 583.322H384.204L387.381 568.355Z" fill="#FCD2B1"/>
<path d="M364.795 583.322C364.795 583.322 373.315 584.381 379.667 576.822C386.02 569.262 382.39 566.088 386.473 565.635C390.557 565.182 408.253 573.342 425.949 571.529C443.645 569.716 449.09 567.017 449.997 573.58C450.905 580.144 448.581 604.523 427.255 603.616C405.928 602.709 364.795 583.322 364.795 583.322Z" fill="black"/>
<path d="M226.778 493.853C254.508 510.74 369.025 549.14 369.025 549.14C369.025 549.14 373.298 578.584 348.539 587.364C348.539 587.364 210.443 548.431 177.773 533.456C145.103 518.482 155.086 492.293 159.623 485.438C164.161 478.583 192.293 472.852 226.778 493.853Z" fill="#0B4870"/>
<path d="M418.875 413.58C414.395 425.194 413.324 437.87 416.037 450.047C421.41 474.22 415.295 475.841 415.295 475.841C415.295 475.841 386.199 496.023 357.795 499.043C332.36 501.747 287.706 489.41 288.17 467.85C288.17 467.85 307.611 435.531 305.119 381.271C302.546 325.607 315.801 312.837 328.006 297.037C346.058 273.67 274.874 257.974 407.859 274.21C436.912 277.757 450.389 285.723 450.158 306.788C450.082 313.789 444.292 325.039 442.437 335.471C437.732 361.979 426.5 393.802 418.875 413.58Z" fill="black"/>
<path d="M403.949 385.783C393.06 414.802 360.629 434.068 329.913 429.775C318.45 428.164 307.402 423.616 298.153 416.654C286.918 408.207 278.513 396.152 274.182 382.796C272.404 377.342 271.311 371.674 270.979 365.937C270.315 354.42 272.571 343.671 276.977 334.166C285.037 316.718 300.332 303.432 318.139 297.163C336.852 290.582 358.339 291.75 377.114 303.999C392.749 314.203 403.23 331.242 406.716 349.519C406.716 349.519 406.716 349.519 406.716 349.526C409.027 361.609 408.279 374.231 403.949 385.783Z" fill="#1282D6"/>
<path d="M334.915 378.206C332.258 379.665 329.041 380.121 326.772 382.119C320.138 387.96 327.125 400.251 321.785 407.281C319.087 410.841 313.712 411.705 309.644 409.839C305.583 407.972 302.857 403.866 301.854 399.511C300.74 394.68 301.121 388.762 297.122 385.824C295.04 384.296 292.314 384.068 289.741 383.902C285.88 383.647 282.014 383.398 278.153 383.142C276.846 383.052 275.504 382.962 274.182 382.796C272.404 377.342 271.311 371.673 270.979 365.936C270.315 354.42 272.571 343.67 276.977 334.166C279.018 333.012 281.308 332.389 283.646 332.617C287.735 333.011 291.173 335.818 295.123 336.931C302.422 338.984 311.526 335.396 317.102 340.525C321.149 344.252 320.927 350.535 321.177 356.024C321.433 361.519 323.549 368.142 328.966 369.116C332.003 369.669 335.843 368.383 337.773 370.796C339.667 373.153 337.564 376.748 334.915 378.206Z" fill="#9DDA9C"/>
<path d="M406.716 349.518C406.716 349.518 406.716 349.518 406.716 349.525C405.886 351.599 404.772 353.569 403.368 355.373C400.608 358.905 395.523 361.726 391.808 359.231C386.446 355.636 389.857 345.315 384.205 342.191C378.055 338.783 371.296 348.986 364.558 346.974C358.097 345.039 358.622 334.207 352.403 331.594C348.114 329.79 343.534 333.032 339.806 335.804C336.07 338.576 330.667 341.023 327.118 338.023C324.123 335.493 324.642 330.751 326.004 327.08C327.367 323.41 329.353 319.601 328.439 315.792C327.056 310.054 319.813 307.323 318.18 301.655C317.751 300.169 317.779 298.641 318.138 297.162C336.852 290.581 358.338 291.75 377.114 303.999C392.749 314.202 403.229 331.241 406.716 349.518Z" fill="#9DDA9C"/>
<path d="M369.609 401.055C372.731 396.945 378.399 395.972 382.942 393.517C386.952 391.35 390.4 387.426 390.453 382.87C390.506 378.314 385.894 373.849 381.557 375.253C379.143 376.035 377.483 378.254 375.226 379.411C371.455 381.344 366.935 379.996 362.801 379.066C358.667 378.136 353.588 377.989 351.009 381.349C346.799 386.836 350.004 394.919 345.456 401.234C341.371 406.907 335.878 411.607 341.972 418.363C346.537 423.424 355.441 423.883 360.776 419.954C367.294 415.156 365.152 406.924 369.609 401.055Z" fill="#9DDA9C"/>
<path d="M387.438 249.581C386.674 247.258 383.869 246.325 381.818 247.658C374.707 252.279 368.186 255.514 357.795 255.514C355.653 255.514 354.718 255.166 354.033 254.678C352.402 253.515 350.142 253.729 348.883 255.285C348.541 255.708 348.432 256.033 349.052 256.165C352.727 256.948 355.395 260.048 355.607 263.773L356.427 279.032C356.453 279.525 356.577 280.008 356.79 280.455L360.876 288.983C361.856 291.029 364.412 291.75 366.318 290.516L373.625 285.79L387.661 276.699C388.803 275.959 389.457 274.661 389.371 273.304L387.983 251.42C387.955 250.98 387.84 250.552 387.659 250.15C387.587 249.993 387.51 249.801 387.438 249.581Z" fill="#FCD2B1"/>
<path d="M324.424 201.699C324.031 201.668 324.248 203.897 321.127 207.507C318.006 211.118 317.755 218.403 317.85 218.168C317.944 217.932 311.816 201.22 313.572 197.126C315.328 193.032 318.941 191.995 319.86 193.33C320.779 194.665 324.424 201.699 324.424 201.699Z" fill="#0B4870"/>
<path d="M394.239 222.536C394.621 226.448 394.713 229.959 394.32 232.513C394.276 232.851 394.2 233.222 394.087 233.596C394.008 233.936 393.931 234.308 393.782 234.685C390.156 246.022 372.745 262.187 360.702 263.644C359.111 263.784 357.549 263.831 356.05 263.781C339.324 263.376 329.759 252.051 324.315 239.937C324.131 239.498 323.949 239.09 323.767 238.681C318.982 227.419 317.589 215.797 317.23 211.732C317.145 210.769 317.134 210.224 317.134 210.224C316.23 205.781 317.162 202.3 317.69 200.858C317.864 200.356 317.987 200.103 317.987 200.103C317.987 200.103 318.201 200.053 318.558 199.961C323.22 198.7 354.938 190.195 355.625 190.135C356.312 190.074 388.074 191.55 388.074 191.55C388.074 191.55 392.886 209.302 394.239 222.536Z" fill="#FFE3CA"/>
<path d="M304.004 185.023C304.004 185.023 305.032 209.246 344.86 199.558C370.496 193.322 376.451 207.334 377.439 218.112C377.758 221.589 381.729 223.387 384.56 221.341C386.5 219.939 390.635 217.885 392.665 222.08C397.992 233.093 388.21 245.159 388.073 245.452C388.073 245.452 395.849 250.897 399.4 228.321C399.9 225.143 400.495 186.283 392.609 175.397C384.725 164.511 375.313 165.005 375.313 165.005C375.313 165.005 365.346 156.612 341.862 163.479C333.615 165.89 326.747 166.469 321.305 166.206C311.121 165.714 302.904 174.433 303.955 184.567C303.971 184.719 303.987 184.871 304.004 185.023Z" fill="black"/>
<path d="M288.17 551.991L313.913 541.919L322.069 558.508L310.27 567.665L290.871 567.05L288.17 551.991Z" fill="#FCD2B1"/>
<path d="M310.27 567.665C310.27 567.665 301.721 568.453 295.611 560.697C289.502 552.94 293.231 549.883 289.163 549.3C285.096 548.718 267.15 556.314 249.52 553.942C231.891 551.569 226.534 548.699 225.419 555.23C224.304 561.761 225.854 586.202 247.198 585.97C268.543 585.74 310.27 567.665 310.27 567.665Z" fill="black"/>
<path d="M305.097 533.269C305.097 533.269 370.161 480.396 397.385 452.285C424.61 424.175 441.852 396.719 473.615 407.727C505.377 418.734 465.448 477.758 436.408 500.84C407.368 523.922 335.635 574.827 335.635 574.827C335.635 574.827 297.153 561.196 305.097 533.269Z" fill="#0E538C"/>
<path d="M284.766 24.8613C277.261 5.00599 255.068 -5.01036 235.198 2.48968C215.327 9.98915 205.303 32.1652 212.809 52.02C214.607 56.7774 217.25 60.9675 220.501 64.4895L220.171 64.614L271.274 116.627C275.676 121.107 283.307 118.227 283.646 111.957L287.575 39.1735L287.245 39.298C287.354 34.5087 286.565 29.6188 284.766 24.8613ZM255.613 56.4954C245.569 60.2864 234.351 55.2236 230.558 45.1874C226.764 35.1511 231.83 23.942 241.874 20.1516C251.918 16.3607 263.136 21.4234 266.929 31.4597C270.723 41.4954 265.656 52.7045 255.613 56.4954Z" fill="black"/>
<path d="M242.139 86.9004C242.455 84.9742 243.504 83.247 245.066 82.0742C252.355 76.5975 264.398 68.6341 268.32 72.6235C272.724 77.1024 290.464 91.2053 268.237 109.125L262.899 114.285L238.896 106.647L242.139 86.9004Z" fill="#FFE3CA"/>
<path d="M297.781 375.846C298.409 361.829 287.546 349.956 273.519 349.329C259.491 348.701 247.609 359.555 246.981 373.572C246.83 376.931 247.341 380.166 248.395 383.153L248.163 383.142L265.614 428.063C267.117 431.932 272.505 432.173 274.349 428.454L295.748 385.272L295.515 385.262C296.832 382.381 297.63 379.204 297.781 375.846ZM271.809 387.455C264.719 387.138 259.228 381.137 259.545 374.052C259.863 366.967 265.868 361.48 272.959 361.797C280.05 362.114 285.541 368.115 285.223 375.201C284.906 382.286 278.9 387.772 271.809 387.455Z" fill="black"/>
<path opacity="0.85" d="M275.809 373.127C271.693 359.712 257.472 352.172 244.047 356.286C230.621 360.399 223.076 374.609 227.192 388.024C228.179 391.238 229.746 394.113 231.743 396.574L231.52 396.642L263.048 433.104C265.764 436.245 270.921 434.665 271.408 430.543L277.06 382.689L276.838 382.757C277.111 379.601 276.796 376.342 275.809 373.127ZM255.244 392.774C248.458 394.853 241.271 391.042 239.19 384.261C237.109 377.48 240.924 370.298 247.709 368.219C254.495 366.14 261.683 369.951 263.764 376.732C265.844 383.512 262.03 390.695 255.244 392.774Z" fill="white"/>
<path d="M283.401 422.766L279.143 420.938C274.683 419.024 271.03 415.587 268.928 411.214C266.493 406.151 260.777 400.55 260.777 400.55C253.919 403.242 266.533 413.303 257.642 415.465C255.613 415.959 253.266 415.272 250.73 415.885C247.561 416.652 243.041 408.092 242.408 410.094C237.877 424.411 253.253 433.949 259.532 434.763C267.801 435.834 285.162 441.029 285.162 441.029L283.401 422.766Z" fill="#FCD2B1"/>
<path d="M279.791 453.743C279.791 453.743 271.917 445.109 273.172 434.937C273.664 430.946 278.328 420.56 278.328 420.56C278.328 420.56 371.272 396.889 379.427 396.569C379.44 395.963 379.471 395.381 379.506 394.756C381.279 370.534 394.716 340.603 398.314 324.039C400.054 316.039 403.514 308.578 408.429 302.415C411.785 298.218 415.799 294.625 420.452 291.809C427.796 287.383 436.166 285.186 443.374 290.536C446.081 292.534 448.031 295.281 449.113 298.301C450.339 301.648 450.495 305.388 449.534 308.841C442.922 332.244 426.113 396.876 419.767 410.24C418.648 412.58 417.321 414.606 415.852 416.303C415.408 416.927 414.901 417.52 414.325 418.166C399.052 434.399 279.791 453.743 279.791 453.743Z" fill="black"/>
</svg>
