<svg width="30" height="30" viewBox="0 0 30 30" fill="none" xmlns="http://www.w3.org/2000/svg">
<path d="M15 30C12.0333 30 9.13319 29.1203 6.66645 27.472C4.19971 25.8238 2.27713 23.4811 1.14181 20.7403C0.00649921 17.9994 -0.290551 14.9834 0.288227 12.0736C0.867006 9.16394 2.29562 6.49119 4.3934 4.3934C6.49119 2.29562 9.16394 0.867006 12.0736 0.288227C14.9834 -0.290551 17.9994 0.00649921 20.7403 1.14181C23.4811 2.27713 25.8238 4.19971 27.472 6.66645C29.1203 9.13319 30 12.0333 30 15C29.9957 18.9769 28.4139 22.7897 25.6018 25.6018C22.7897 28.4139 18.9769 29.9957 15 30V30ZM15 0.937506C12.2187 0.937506 9.49986 1.76226 7.1873 3.30746C4.87473 4.85267 3.07231 7.04893 2.00795 9.61852C0.943593 12.1881 0.665109 15.0156 1.20771 17.7435C1.75032 20.4713 3.08964 22.977 5.05632 24.9437C7.02299 26.9104 9.52869 28.2497 12.2565 28.7923C14.9844 29.3349 17.8119 29.0564 20.3815 27.9921C22.9511 26.9277 25.1473 25.1253 26.6925 22.8127C28.2377 20.5001 29.0625 17.7813 29.0625 15C29.0582 11.2717 27.5752 7.6974 24.9389 5.06111C22.3026 2.42482 18.7283 0.941849 15 0.937506V0.937506Z" fill="white"/>
<mask id="path-2-inside-1_330_2720" fill="white">
<path d="M22.2656 10.3125H7.73437C7.61005 10.3125 7.49083 10.2631 7.40292 10.1752C7.31501 10.0873 7.26562 9.96807 7.26562 9.84375C7.26562 9.71943 7.31501 9.6002 7.40292 9.51229C7.49083 9.42439 7.61005 9.375 7.73437 9.375H22.2656C22.3899 9.375 22.5092 9.42439 22.5971 9.51229C22.685 9.6002 22.7344 9.71943 22.7344 9.84375C22.7344 9.96807 22.685 10.0873 22.5971 10.1752C22.5092 10.2631 22.3899 10.3125 22.2656 10.3125ZM22.2656 15.4687H7.73437C7.61005 15.4687 7.49083 15.4194 7.40292 15.3315C7.31501 15.2435 7.26562 15.1243 7.26562 15C7.26562 14.8757 7.31501 14.7564 7.40292 14.6685C7.49083 14.5806 7.61005 14.5312 7.73437 14.5312H22.2656C22.3899 14.5312 22.5092 14.5806 22.5971 14.6685C22.685 14.7564 22.7344 14.8757 22.7344 15C22.7344 15.1243 22.685 15.2435 22.5971 15.3315C22.5092 15.4194 22.3899 15.4687 22.2656 15.4687ZM22.2656 20.625H7.73437C7.61005 20.625 7.49083 20.5756 7.40292 20.4877C7.31501 20.3998 7.26562 20.2806 7.26562 20.1562C7.26562 20.0319 7.31501 19.9127 7.40292 19.8248C7.49083 19.7369 7.61005 19.6875 7.73437 19.6875H22.2656C22.3899 19.6875 22.5092 19.7369 22.5971 19.8248C22.685 19.9127 22.7344 20.0319 22.7344 20.1562C22.7344 20.2806 22.685 20.3998 22.5971 20.4877C22.5092 20.5756 22.3899 20.625 22.2656 20.625Z"/>
</mask>
<path d="M22.2656 10.3125H7.73437C7.61005 10.3125 7.49083 10.2631 7.40292 10.1752C7.31501 10.0873 7.26562 9.96807 7.26562 9.84375C7.26562 9.71943 7.31501 9.6002 7.40292 9.51229C7.49083 9.42439 7.61005 9.375 7.73437 9.375H22.2656C22.3899 9.375 22.5092 9.42439 22.5971 9.51229C22.685 9.6002 22.7344 9.71943 22.7344 9.84375C22.7344 9.96807 22.685 10.0873 22.5971 10.1752C22.5092 10.2631 22.3899 10.3125 22.2656 10.3125ZM22.2656 15.4687H7.73437C7.61005 15.4687 7.49083 15.4194 7.40292 15.3315C7.31501 15.2435 7.26562 15.1243 7.26562 15C7.26562 14.8757 7.31501 14.7564 7.40292 14.6685C7.49083 14.5806 7.61005 14.5312 7.73437 14.5312H22.2656C22.3899 14.5312 22.5092 14.5806 22.5971 14.6685C22.685 14.7564 22.7344 14.8757 22.7344 15C22.7344 15.1243 22.685 15.2435 22.5971 15.3315C22.5092 15.4194 22.3899 15.4687 22.2656 15.4687ZM22.2656 20.625H7.73437C7.61005 20.625 7.49083 20.5756 7.40292 20.4877C7.31501 20.3998 7.26562 20.2806 7.26562 20.1562C7.26562 20.0319 7.31501 19.9127 7.40292 19.8248C7.49083 19.7369 7.61005 19.6875 7.73437 19.6875H22.2656C22.3899 19.6875 22.5092 19.7369 22.5971 19.8248C22.685 19.9127 22.7344 20.0319 22.7344 20.1562C22.7344 20.2806 22.685 20.3998 22.5971 20.4877C22.5092 20.5756 22.3899 20.625 22.2656 20.625Z" fill="white"/>
<path d="M22.2656 9.3125H7.73437V11.3125H22.2656V9.3125ZM7.73437 9.3125C7.87527 9.3125 8.0104 9.36847 8.11003 9.4681L6.69581 10.8823C6.97126 11.1578 7.34484 11.3125 7.73437 11.3125V9.3125ZM8.11003 9.4681C8.20965 9.56773 8.26562 9.70285 8.26562 9.84375H6.26562C6.26562 10.2333 6.42037 10.6069 6.69581 10.8823L8.11003 9.4681ZM8.26562 9.84375C8.26562 9.98465 8.20965 10.1198 8.11003 10.2194L6.69581 8.80519C6.42037 9.08063 6.26562 9.45421 6.26562 9.84375H8.26562ZM8.11003 10.2194C8.0104 10.319 7.87527 10.375 7.73437 10.375V8.375C7.34484 8.375 6.97126 8.52974 6.69581 8.80519L8.11003 10.2194ZM7.73437 10.375H22.2656V8.375H7.73437V10.375ZM22.2656 10.375C22.1247 10.375 21.9896 10.319 21.89 10.2194L23.3042 8.80519C23.0287 8.52974 22.6552 8.375 22.2656 8.375V10.375ZM21.89 10.2194C21.7903 10.1198 21.7344 9.98464 21.7344 9.84375H23.7344C23.7344 9.45422 23.5796 9.08063 23.3042 8.80519L21.89 10.2194ZM21.7344 9.84375C21.7344 9.70286 21.7903 9.56773 21.89 9.4681L23.3042 10.8823C23.5796 10.6069 23.7344 10.2333 23.7344 9.84375H21.7344ZM21.89 9.4681C21.9896 9.36847 22.1247 9.3125 22.2656 9.3125V11.3125C22.6552 11.3125 23.0287 11.1578 23.3042 10.8823L21.89 9.4681ZM22.2656 14.4687H7.73437V16.4687H22.2656V14.4687ZM7.73437 14.4687C7.87527 14.4687 8.0104 14.5247 8.11003 14.6243L6.69581 16.0386C6.97126 16.314 7.34484 16.4687 7.73437 16.4687V14.4687ZM8.11003 14.6243C8.20965 14.724 8.26562 14.8591 8.26562 15H6.26562C6.26562 15.3895 6.42037 15.7631 6.69581 16.0386L8.11003 14.6243ZM8.26562 15C8.26562 15.1409 8.20965 15.276 8.11003 15.3756L6.69581 13.9614C6.42037 14.2369 6.26562 14.6105 6.26562 15H8.26562ZM8.11003 15.3756C8.0104 15.4753 7.87527 15.5312 7.73437 15.5312V13.5312C7.34484 13.5312 6.97126 13.686 6.69581 13.9614L8.11003 15.3756ZM7.73437 15.5312H22.2656V13.5312H7.73437V15.5312ZM22.2656 15.5312C22.1247 15.5312 21.9896 15.4753 21.89 15.3756L23.3042 13.9614C23.0287 13.686 22.6552 13.5312 22.2656 13.5312V15.5312ZM21.89 15.3756C21.7903 15.276 21.7344 15.1409 21.7344 15H23.7344C23.7344 14.6105 23.5796 14.2369 23.3042 13.9614L21.89 15.3756ZM21.7344 15C21.7344 14.8591 21.7903 14.724 21.89 14.6243L23.3042 16.0386C23.5796 15.7631 23.7344 15.3895 23.7344 15H21.7344ZM21.89 14.6243C21.9896 14.5247 22.1247 14.4687 22.2656 14.4687V16.4687C22.6552 16.4687 23.0287 16.314 23.3042 16.0386L21.89 14.6243ZM22.2656 19.625H7.73437V21.625H22.2656V19.625ZM7.73437 19.625C7.87527 19.625 8.0104 19.681 8.11003 19.7806L6.69581 21.1948C6.97126 21.4703 7.34484 21.625 7.73437 21.625V19.625ZM8.11003 19.7806C8.20965 19.8802 8.26562 20.0154 8.26562 20.1562H6.26562C6.26562 20.5458 6.42037 20.9194 6.69581 21.1948L8.11003 19.7806ZM8.26562 20.1562C8.26562 20.2971 8.20965 20.4323 8.11003 20.5319L6.69581 19.1177C6.42037 19.3931 6.26562 19.7667 6.26562 20.1562H8.26562ZM8.11003 20.5319C8.0104 20.6315 7.87527 20.6875 7.73437 20.6875V18.6875C7.34484 18.6875 6.97126 18.8422 6.69581 19.1177L8.11003 20.5319ZM7.73437 20.6875H22.2656V18.6875H7.73437V20.6875ZM22.2656 20.6875C22.1247 20.6875 21.9896 20.6315 21.89 20.5319L23.3042 19.1177C23.0287 18.8422 22.6552 18.6875 22.2656 18.6875V20.6875ZM21.89 20.5319C21.7903 20.4323 21.7344 20.2971 21.7344 20.1562H23.7344C23.7344 19.7667 23.5796 19.3931 23.3042 19.1177L21.89 20.5319ZM21.7344 20.1562C21.7344 20.0154 21.7903 19.8802 21.89 19.7806L23.3042 21.1948C23.5796 20.9194 23.7344 20.5458 23.7344 20.1562H21.7344ZM21.89 19.7806C21.9896 19.681 22.1247 19.625 22.2656 19.625V21.625C22.6552 21.625 23.0287 21.4703 23.3042 21.1948L21.89 19.7806Z" fill="white" mask="url(#path-2-inside-1_330_2720)"/>
</svg>
