<svg width="47" height="40" viewBox="0 0 47 40" fill="none" xmlns="http://www.w3.org/2000/svg">
<path d="M47 4.79227C45.2336 5.59342 43.3656 6.12304 41.454 6.36463C43.4707 5.10507 44.982 3.12356 45.7075 0.787656C43.8123 1.96708 41.7378 2.79806 39.574 3.24447C38.1277 1.60473 36.2017 0.513221 34.098 0.141148C31.9944 -0.230924 29.8322 0.13748 27.9504 1.18858C26.0686 2.23969 24.5738 3.91403 23.7003 5.94903C22.8268 7.98402 22.6241 10.2646 23.124 12.433C19.2922 12.2303 15.5439 11.1873 12.1228 9.37144C8.70174 7.55562 5.68429 5.00772 3.2665 1.89322C2.41847 3.44143 1.97287 5.19475 1.974 6.97884C1.97099 8.63567 2.35991 10.2676 3.10612 11.7293C3.85234 13.1909 4.93269 14.437 6.251 15.3566C4.71875 15.313 3.21923 14.8832 1.88 14.1036V14.2264C1.89148 16.5479 2.66959 18.7939 4.08269 20.5846C5.49579 22.3753 7.45715 23.6008 9.635 24.0537C8.79665 24.3204 7.92626 24.4611 7.05 24.4714C6.44344 24.464 5.83839 24.4065 5.2405 24.2994C5.86069 26.2963 7.06086 28.0415 8.67403 29.292C10.2872 30.5426 12.2331 31.2364 14.241 31.2768C10.8504 34.0659 6.66433 35.5881 2.35 35.6008C1.56448 35.6035 0.779579 35.5542 0 35.4534C4.40491 38.4267 9.53821 40.0052 14.7815 39.9985C18.3998 40.0377 21.9893 39.3229 25.3403 37.8956C28.6914 36.4684 31.7368 34.3573 34.2987 31.6858C36.8607 29.0143 38.8877 25.8359 40.2615 22.3362C41.6353 18.8365 42.3283 15.0857 42.3 11.3028C42.3 10.8852 42.3 10.4429 42.3 10.0007C44.144 8.56302 45.7345 6.80053 47 4.79227Z" fill="white"/>
</svg>
